<svg xmlns="http://www.w3.org/2000/svg" width="1200" height="630" viewBox="0 0 1200 630"><rect width="1200" height="630" fill="#f3f7f9"/><circle cx="1030" cy="105" r="170" fill="#dff1f1"/><circle cx="150" cy="590" r="210" fill="#e8eef8"/><g font-family="'Noto Sans CJK KR','Noto Sans KR',sans-serif"><text x="70" y="70" font-size="22" font-weight="700" fill="#087f8c">VOXEN INSIGHTS · AI EASY GUIDE</text><text x="70" y="145" font-size="47" font-weight="800" fill="#132238">회의 끝나고 정리하느라</text><text x="70" y="202" font-size="47" font-weight="800" fill="#132238">또 30분 쓰고 있나요?</text><g transform="translate(680 245)"><rect x="0" y="0" width="420" height="265" rx="30" fill="#fff" stroke="#dbe6ea" stroke-width="3"/><rect x="34" y="35" width="170" height="18" rx="9" fill="#d8e5e8"/><rect x="34" y="76" width="330" height="14" rx="7" fill="#e5ecef"/><rect x="34" y="108" width="280" height="14" rx="7" fill="#e5ecef"/><rect x="34" y="140" width="310" height="14" rx="7" fill="#e5ecef"/><circle cx="77" cy="209" r="30" fill="#e4f4f4"/><path d="M65 209l9 9 17-20" fill="none" stroke="#087f8c" stroke-width="6" stroke-linecap="round" stroke-linejoin="round"/><text x="125" y="218" font-size="22" font-weight="700" fill="#132238">할 일 자동 추출</text></g><g transform="translate(90 275)"><circle cx="90" cy="80" r="65" fill="#fff" stroke="#dbe6ea" stroke-width="3"/><circle cx="90" cy="62" r="22" fill="#516174"/><path d="M48 125c8-34 76-34 84 0" fill="#516174"/><circle cx="255" cy="80" r="65" fill="#fff" stroke="#dbe6ea" stroke-width="3"/><circle cx="255" cy="62" r="22" fill="#516174"/><path d="M213 125c8-34 76-34 84 0" fill="#516174"/><circle cx="420" cy="80" r="65" fill="#fff" stroke="#dbe6ea" stroke-width="3"/><circle cx="420" cy="62" r="22" fill="#516174"/><path d="M378 125c8-34 76-34 84 0" fill="#516174"/><path d="M85 175h345" stroke="#087f8c" stroke-width="5" stroke-linecap="round"/><circle cx="257" cy="175" r="12" fill="#087f8c"/><text x="90" y="230" font-size="23" font-weight="700" fill="#132238">녹음 → 요약 → 담당자·할 일 정리</text></g><text x="1090" y="590" text-anchor="end" font-size="18" fill="#657386">insights.voxen.io</text></g></svg>