<svg xmlns="http://www.w3.org/2000/svg" width="1200" height="630" viewBox="0 0 1200 630"><rect width="1200" height="630" fill="#f7f7f4"/><g fill="none" stroke="#20242a" stroke-width="8" stroke-linecap="round" stroke-linejoin="round"><rect x="410" y="105" width="390" height="430" rx="22" fill="#fff"/><path d="M485 190h240M485 245h185M485 300h230M485 355h200"/><path d="M485 430l28 28 55-68"/><circle cx="280" cy="220" r="58" fill="#fff"/><path d="M220 520c5-115 32-190 60-190s55 75 60 190M270 330l80 85 85-35"/><circle cx="920" cy="215" r="52" fill="#fff"/><path d="M860 520c7-110 32-180 60-180s53 70 60 180M870 370l-70 72"/><rect x="775" y="420" width="90" height="70" rx="12" fill="#fff"/><path d="M820 420v-30c0-32 46-32 46 0v30"/></g><g font-family="Noto Sans CJK KR, Noto Sans KR, sans-serif" fill="#20242a"><text x="600" y="75" text-anchor="middle" font-size="32" font-weight="700">AI 외주 계약, 개발 전에 확인할 것</text><text x="485" y="490" font-size="24" font-weight="700">계약 조건 확인</text><text x="865" y="565" font-size="22">데이터 · 코드 · 비용 · 운영</text></g></svg>