<svg xmlns="http://www.w3.org/2000/svg" width="1200" height="630" viewBox="0 0 1200 630"><rect width="1200" height="630" fill="#f3f6f8"/><rect x="70" y="65" width="1060" height="500" rx="34" fill="#fff"/><text x="105" y="125" font-family="Noto Sans CJK KR,Noto Sans KR,sans-serif" font-size="25" font-weight="700" fill="#2570ff">VOXEN INSIGHTS · AI BUSINESS</text><text x="105" y="195" font-family="Noto Sans CJK KR,Noto Sans KR,sans-serif" font-size="48" font-weight="800" fill="#172033">AI 외주 업체,</text><text x="105" y="255" font-family="Noto Sans CJK KR,Noto Sans KR,sans-serif" font-size="48" font-weight="800" fill="#172033">제안서에서 무엇을 봐야 할까?</text><rect x="105" y="310" width="360" height="185" rx="18" fill="#eef3ff"/><rect x="130" y="340" width="115" height="16" rx="8" fill="#94adcf"/><rect x="130" y="375" width="280" height="12" rx="6" fill="#c0cee0"/><rect x="130" y="405" width="245" height="12" rx="6" fill="#c0cee0"/><rect x="130" y="435" width="265" height="12" rx="6" fill="#c0cee0"/><circle cx="785" cy="353" r="76" fill="#dce8ff"/><circle cx="785" cy="330" r="28" fill="#8da9d0"/><path d="M725 410c12-51 108-51 120 0" fill="#8da9d0"/><rect x="900" y="302" width="150" height="42" rx="21" fill="#e9f7ef"/><text x="975" y="330" text-anchor="middle" font-family="Noto Sans CJK KR,Noto Sans KR,sans-serif" font-size="18" font-weight="700" fill="#28794d">데이터 연결</text><rect x="900" y="360" width="150" height="42" rx="21" fill="#fff1dc"/><text x="975" y="388" text-anchor="middle" font-family="Noto Sans CJK KR,Noto Sans KR,sans-serif" font-size="18" font-weight="700" fill="#9a6417">권한·승인</text><rect x="900" y="418" width="150" height="42" rx="21" fill="#f1eaff"/><text x="975" y="446" text-anchor="middle" font-family="Noto Sans CJK KR,Noto Sans KR,sans-serif" font-size="18" font-weight="700" fill="#6741a5">운영·비용</text><text x="105" y="535" font-family="Noto Sans CJK KR,Noto Sans KR,sans-serif" font-size="21" fill="#647086">모델 이름보다 실제 업무에 어떻게 연결되는지를 확인하세요.</text></svg>